<svg
  xmlns="http://www.w3.org/2000/svg"
  width="32"
  height="32"
  viewBox="0 0 24 24"
  fill="none"
  className="auth-icon"
  aria-hidden="true"
  role="img"
>
  <defs>
    <linearGradient id="authGradient" x1="0%" y1="0%" x2="100%" y2="100%">
      <stop offset="0%" stopColor="#2563EB" />
      <stop offset="100%" stopColor="#60A5FA" />
    </linearGradient>
  </defs>
  <path
    fill="url(#authGradient)"
    d="M12 2C9.24 2 7 4.24 7 7v3H6c-1.1 0-2 .9-2 2v8c0 1.1.9 2 2 2h12c1.1 0 2-.9 2-2v-8c0-1.1-.9-2-2-2h-1V7c0-2.76-2.24-5-5-5zm0 2c1.66 0 3 1.34 3 3v3H9V7c0-1.66 1.34-3 3-3zm-1 10.59L8.71 12.3a1 1 0 0 0-1.42 1.42l3 3a1 1 0 0 0 1.42 0l5-5a1 1 0 0 0-1.42-1.42L11 14.59z"
  />
</svg>

